<svg display="none" width="0" height="0" version="1.1" baseProfile="full" xmlns="http://www.w3.org/2000/svg" xmlns:xlink="http://www.w3.org/1999/xlink">
	<symbol id="arrow-down" viewBox="0 0 11 6">
		<path d="M5.5 4.05733L1.97134 0.52866C1.8456 0.407221 1.6772 0.340025 1.5024 0.341544C1.32761 0.343063 1.1604 0.413175 1.03679 0.536781C0.913187 0.660386 0.843074 0.827595 0.841555 1.00239C0.840036 1.17719 0.907233 1.34559 1.02867 1.47133L5.02867 5.47133C5.15369 5.59631 5.32323 5.66652 5.5 5.66652C5.67678 5.66652 5.84632 5.59631 5.97134 5.47133L9.97134 1.47133C10.035 1.40983 10.0858 1.33627 10.1207 1.25493C10.1557 1.17359 10.1741 1.08611 10.1748 0.997594C10.1756 0.909074 10.1587 0.821288 10.1252 0.739357C10.0917 0.657426 10.0422 0.582992 9.9796 0.520397C9.91701 0.457801 9.84257 0.408299 9.76064 0.374779C9.67871 0.341258 9.59092 0.32439 9.50241 0.325159C9.41389 0.325929 9.32641 0.344319 9.24507 0.379259C9.16373 0.414198 9.09017 0.464986 9.02867 0.52866L5.5 4.05733Z" fill="#254E5F"/>
	</symbol>

	<symbol id="check" viewBox="0 0 14 10">
		<path d="M2.13801 5.19533C2.07652 5.13166 2.00295 5.08087 1.92162 5.04593C1.84028 5.01099 1.7528 4.9926 1.66428 4.99183C1.57576 4.99106 1.48797 5.00793 1.40604 5.04145C1.32411 5.07497 1.24968 5.12447 1.18708 5.18707C1.12449 5.24966 1.07499 5.3241 1.04147 5.40603C1.00795 5.48796 0.991077 5.57575 0.991846 5.66427C0.992616 5.75278 1.01101 5.84026 1.04595 5.9216C1.08089 6.00294 1.13167 6.0765 1.19535 6.138L4.52868 9.47133C4.6537 9.59631 4.82324 9.66652 5.00001 9.66652C5.17679 9.66652 5.34633 9.59631 5.47135 9.47133L12.8047 2.138C12.8684 2.0765 12.9191 2.00294 12.9541 1.9216C12.989 1.84027 13.0074 1.75279 13.0082 1.66427C13.009 1.57575 12.9921 1.48796 12.9586 1.40603C12.925 1.3241 12.8755 1.24966 12.8129 1.18707C12.7503 1.12447 12.6759 1.07497 12.594 1.04145C12.5121 1.00793 12.4243 0.991062 12.3357 0.991831C12.2472 0.9926 12.1597 1.01099 12.0784 1.04593C11.9971 1.08087 11.9235 1.13166 11.862 1.19533L5.00001 8.05733L2.13801 5.19533Z" fill="#254E5F"/>
	</symbol>

	<symbol id="cross" viewBox="0 0 10 10">
		<path d="M5.94266 5L9.47133 8.52867C9.59277 8.6544 9.65996 8.8228 9.65844 8.9976C9.65693 9.1724 9.58681 9.33961 9.46321 9.46321C9.3396 9.58682 9.17239 9.65693 8.99759 9.65845C8.8228 9.65997 8.6544 9.59277 8.52866 9.47134L4.99999 5.94267L1.47133 9.47134C1.40983 9.53501 1.33627 9.5858 1.25493 9.62074C1.17359 9.65567 1.08611 9.67407 0.997594 9.67484C0.909074 9.6756 0.821288 9.65874 0.739357 9.62522C0.657426 9.5917 0.582991 9.54219 0.520396 9.4796C0.457801 9.417 0.408299 9.34257 0.374778 9.26064C0.341258 9.17871 0.32439 9.09092 0.325159 9.0024C0.325929 8.91388 0.34432 8.8264 0.379259 8.74507C0.414198 8.66373 0.464986 8.59017 0.52866 8.52867L4.05733 5L0.52866 1.47133C0.407221 1.3456 0.340025 1.1772 0.341544 1.0024C0.343063 0.827602 0.413175 0.660394 0.536781 0.536788C0.660386 0.413183 0.827594 0.34307 1.00239 0.341551C1.17719 0.340032 1.34559 0.407229 1.47133 0.528668L4.99999 4.05733L8.52866 0.528668C8.6544 0.407229 8.8228 0.340032 8.99759 0.341551C9.17239 0.34307 9.3396 0.413183 9.46321 0.536788C9.58681 0.660394 9.65693 0.827602 9.65844 1.0024C9.65996 1.1772 9.59277 1.3456 9.47133 1.47133L5.94266 5Z" fill="#D12E34"/>
	</symbol>

	<symbol id="download" viewBox="0 0 17 16">
		<path fill-rule="evenodd" clip-rule="evenodd" d="M8.01599 11.1253L5.36199 8.47132C5.23698 8.34623 5.16679 8.1766 5.16685 7.99975C5.16692 7.82291 5.23723 7.65333 5.36232 7.52832C5.48742 7.40332 5.65705 7.33313 5.83389 7.33319C6.01074 7.33325 6.18032 7.40356 6.30532 7.52866L7.83332 9.05732V1.33332C7.83332 1.15651 7.90356 0.986943 8.02859 0.861919C8.15361 0.736894 8.32318 0.666656 8.49999 0.666656C8.6768 0.666656 8.84637 0.736894 8.97139 0.861919C9.09642 0.986943 9.16666 1.15651 9.16666 1.33332V9.05732L10.6947 7.52866C10.8197 7.40356 10.9892 7.33325 11.1661 7.33319C11.3429 7.33313 11.5126 7.40332 11.6377 7.52832C11.7628 7.65333 11.8331 7.82291 11.8331 7.99975C11.8332 8.1766 11.763 8.34623 11.638 8.47132L8.98466 11.124C8.92234 11.19 8.84722 11.2425 8.76388 11.2784C8.68054 11.3144 8.59074 11.3329 8.49999 11.3329C8.40924 11.3329 8.31944 11.3144 8.2361 11.2784C8.15276 11.2425 8.07764 11.19 8.01532 11.124L8.01599 11.1253Z" fill="white"/>
		<path fill-rule="evenodd" clip-rule="evenodd" d="M1.83333 11.3333V13.3333C1.83333 13.8638 2.04404 14.3725 2.41911 14.7475C2.79419 15.1226 3.3029 15.3333 3.83333 15.3333H13.1667C13.6971 15.3333 14.2058 15.1226 14.5809 14.7475C14.9559 14.3725 15.1667 13.8638 15.1667 13.3333V11.3333C15.1667 11.1565 15.0964 10.9869 14.9714 10.8619C14.8464 10.7369 14.6768 10.6667 14.5 10.6667C14.3232 10.6667 14.1536 10.7369 14.0286 10.8619C13.9036 10.9869 13.8333 11.1565 13.8333 11.3333V13.3333C13.8333 13.5101 13.7631 13.6797 13.6381 13.8047C13.513 13.9298 13.3435 14 13.1667 14H3.83333C3.65652 14 3.48695 13.9298 3.36192 13.8047C3.2369 13.6797 3.16666 13.5101 3.16666 13.3333V11.3333C3.16666 11.1565 3.09642 10.9869 2.9714 10.8619C2.84638 10.7369 2.67681 10.6667 2.49999 10.6667C2.32318 10.6667 2.15361 10.7369 2.02859 10.8619C1.90357 10.9869 1.83333 11.1565 1.83333 11.3333Z" fill="white"/>
	</symbol>

	<symbol id="icon-success" viewBox="0 0 16 16">
		<g clip-path="url(#clip0)">
		<path fill-rule="evenodd" clip-rule="evenodd" d="M13.3333 7.38401V8.00401C13.3326 9.29786 12.9136 10.5568 12.1389 11.5931C11.3642 12.6294 10.2753 13.3875 9.03455 13.7543C7.79379 14.1212 6.46769 14.0771 5.25402 13.6288C4.04034 13.1804 3.00413 12.3517 2.29991 11.2662C1.59569 10.1808 1.26121 8.89685 1.34634 7.6058C1.43147 6.31475 1.93166 5.0858 2.7723 4.10225C3.61295 3.1187 4.74901 2.43324 6.01105 2.1481C7.27309 1.86295 8.5935 1.99341 9.77534 2.52001C9.93685 2.59197 10.1203 2.59682 10.2854 2.5335C10.4505 2.47017 10.5837 2.34386 10.6557 2.18234C10.7276 2.02083 10.7325 1.83734 10.6692 1.67224C10.6058 1.50715 10.4795 1.37397 10.318 1.30201C8.87353 0.658389 7.2597 0.498943 5.71721 0.847449C4.17471 1.19596 2.78619 2.03374 1.75874 3.23586C0.731285 4.43798 0.119946 5.94002 0.0158963 7.51797C-0.0881532 9.09592 0.320662 10.6652 1.18137 11.9919C2.04208 13.3185 3.30857 14.3313 4.79195 14.8794C6.27532 15.4274 7.89612 15.4812 9.4126 15.0329C10.9291 14.5845 12.26 13.6579 13.2068 12.3913C14.1537 11.1248 14.6658 9.58605 14.6667 8.00468V7.38468C14.6667 7.20786 14.5964 7.0383 14.4714 6.91327C14.3464 6.78825 14.1768 6.71801 14 6.71801C13.8232 6.71801 13.6536 6.78825 13.5286 6.91327C13.4036 7.0383 13.3333 7.20786 13.3333 7.38468V7.38401Z" fill="#8BC34A"/>
		<path fill-rule="evenodd" clip-rule="evenodd" d="M7.33334 8.39467L5.80467 6.86667C5.74317 6.80299 5.66961 6.7522 5.58827 6.71727C5.50694 6.68233 5.41946 6.66394 5.33094 6.66317C5.24242 6.6624 5.15463 6.67926 5.0727 6.71279C4.99077 6.74631 4.91633 6.79581 4.85374 6.8584C4.79114 6.921 4.74164 6.99543 4.70812 7.07736C4.6746 7.15929 4.65773 7.24708 4.6585 7.3356C4.65927 7.42412 4.67766 7.5116 4.7126 7.59294C4.74754 7.67427 4.79833 7.74783 4.862 7.80933L6.862 9.80933C6.98702 9.93431 7.15656 10.0045 7.33334 10.0045C7.51011 10.0045 7.67965 9.93431 7.80467 9.80933L15.138 2.476C15.2594 2.35026 15.3266 2.18186 15.3251 2.00707C15.3236 1.83227 15.2535 1.66506 15.1299 1.54145C15.0063 1.41785 14.8391 1.34774 14.6643 1.34622C14.4895 1.3447 14.3211 1.41189 14.1953 1.53333L7.33334 8.39467Z" fill="#254E5F"/>
		</g>
		<defs>
		<clipPath id="clip0">
		<rect width="16" height="16" fill="white"/>
		</clipPath>
		</defs>
	</symbol>

	<symbol id="icon-error" viewBox="0 0 16 16">
		<path fill-rule="evenodd" clip-rule="evenodd" d="M7.99999 15.3333C3.94999 15.3333 0.666656 12.05 0.666656 7.99999C0.666656 3.94999 3.94999 0.666656 7.99999 0.666656C12.05 0.666656 15.3333 3.94999 15.3333 7.99999C15.3333 12.05 12.05 15.3333 7.99999 15.3333ZM7.99999 14C8.78792 14 9.56814 13.8448 10.2961 13.5433C11.024 13.2417 11.6855 12.7998 12.2426 12.2426C12.7998 11.6855 13.2417 11.024 13.5433 10.2961C13.8448 9.56814 14 8.78792 14 7.99999C14 7.21206 13.8448 6.43184 13.5433 5.70389C13.2417 4.97594 12.7998 4.3145 12.2426 3.75735C11.6855 3.2002 11.024 2.75824 10.2961 2.45671C9.56814 2.15518 8.78792 1.99999 7.99999 1.99999C6.40869 1.99999 4.88257 2.63213 3.75735 3.75735C2.63213 4.88257 1.99999 6.40869 1.99999 7.99999C1.99999 9.59129 2.63213 11.1174 3.75735 12.2426C4.88257 13.3678 6.40869 14 7.99999 14Z" fill="#D12E34"/>
		<path fill-rule="evenodd" clip-rule="evenodd" d="M7.33331 5.33332V7.99999C7.33331 8.1768 7.40355 8.34637 7.52858 8.47139C7.6536 8.59642 7.82317 8.66666 7.99998 8.66666C8.17679 8.66666 8.34636 8.59642 8.47138 8.47139C8.59641 8.34637 8.66665 8.1768 8.66665 7.99999V5.33332C8.66665 5.15651 8.59641 4.98694 8.47138 4.86192C8.34636 4.73689 8.17679 4.66666 7.99998 4.66666C7.82317 4.66666 7.6536 4.73689 7.52858 4.86192C7.40355 4.98694 7.33331 5.15651 7.33331 5.33332ZM7.52865 10.4713C7.59014 10.535 7.66371 10.5858 7.74504 10.6207C7.82638 10.6557 7.91386 10.6741 8.00238 10.6748C8.0909 10.6756 8.17868 10.6587 8.26061 10.6252C8.34255 10.5917 8.41698 10.5422 8.47958 10.4796C8.54217 10.417 8.59167 10.3426 8.62519 10.2606C8.65871 10.1787 8.67558 10.0909 8.67481 10.0024C8.67404 9.91387 8.65565 9.82639 8.62071 9.74505C8.58577 9.66372 8.53499 9.59015 8.47131 9.52866C8.34558 9.40722 8.17718 9.34002 8.00238 9.34154C7.82758 9.34306 7.66037 9.41317 7.53677 9.53678C7.41316 9.66038 7.34305 9.82759 7.34153 10.0024C7.34001 10.1772 7.40721 10.3456 7.52865 10.4713Z" fill="#254E5F"/>
	</symbol>

	<symbol id="icon-noactive" viewBox="0 0 16 16">
		<path fill-rule="evenodd" clip-rule="evenodd" d="M7.99999 15.3334C3.94999 15.3334 0.666656 12.05 0.666656 8.00002C0.666656 3.95002 3.94999 0.666687 7.99999 0.666687C12.05 0.666687 15.3333 3.95002 15.3333 8.00002C15.3333 12.05 12.05 15.3334 7.99999 15.3334ZM7.99999 14C8.78792 14 9.56814 13.8448 10.2961 13.5433C11.024 13.2418 11.6855 12.7998 12.2426 12.2427C12.7998 11.6855 13.2417 11.0241 13.5433 10.2961C13.8448 9.56817 14 8.78795 14 8.00002C14 7.21209 13.8448 6.43187 13.5433 5.70392C13.2417 4.97597 12.7998 4.31453 12.2426 3.75738C11.6855 3.20023 11.024 2.75827 10.2961 2.45674C9.56814 2.15521 8.78792 2.00002 7.99999 2.00002C6.40869 2.00002 4.88257 2.63216 3.75735 3.75738C2.63213 4.8826 1.99999 6.40872 1.99999 8.00002C1.99999 9.59132 2.63213 11.1174 3.75735 12.2427C4.88257 13.3679 6.40869 14 7.99999 14Z" fill="#C7C7CC"/>
		<path fill-rule="evenodd" clip-rule="evenodd" d="M8.66665 4.00004C8.66665 3.82323 8.59641 3.65366 8.47138 3.52864C8.34636 3.40361 8.17679 3.33337 7.99998 3.33337C7.82317 3.33337 7.6536 3.40361 7.52858 3.52864C7.40355 3.65366 7.33331 3.82323 7.33331 4.00004V8.00004C7.33335 8.17684 7.40361 8.34638 7.52865 8.47137L9.52865 10.4714C9.65438 10.5928 9.82278 10.66 9.99758 10.6585C10.1724 10.657 10.3396 10.5869 10.4632 10.4633C10.5868 10.3396 10.6569 10.1724 10.6584 9.99764C10.6599 9.82284 10.5928 9.65444 10.4713 9.52871L8.66665 7.72404V4.00004Z" fill="#254E5F"/>
	</symbol>

	<symbol id="icon-wait" viewBox="0 0 16 16">
		<path d="M7.33332 1.33332C7.33332 1.15651 7.40356 0.986943 7.52858 0.861919C7.65361 0.736894 7.82318 0.666656 7.99999 0.666656C8.1768 0.666656 8.34637 0.736894 8.47139 0.861919C8.59642 0.986943 8.66666 1.15651 8.66666 1.33332V3.99999C8.66666 4.1768 8.59642 4.34637 8.47139 4.47139C8.34637 4.59642 8.1768 4.66666 7.99999 4.66666C7.82318 4.66666 7.65361 4.59642 7.52858 4.47139C7.40356 4.34637 7.33332 4.1768 7.33332 3.99999V1.33332ZM7.33332 12C7.33332 11.8232 7.40356 11.6536 7.52858 11.5286C7.65361 11.4036 7.82318 11.3333 7.99999 11.3333C8.1768 11.3333 8.34637 11.4036 8.47139 11.5286C8.59642 11.6536 8.66666 11.8232 8.66666 12V14.6667C8.66666 14.8435 8.59642 15.013 8.47139 15.1381C8.34637 15.2631 8.1768 15.3333 7.99999 15.3333C7.82318 15.3333 7.65361 15.2631 7.52858 15.1381C7.40356 15.013 7.33332 14.8435 7.33332 14.6667V12ZM2.81532 3.75799C2.69388 3.63225 2.62669 3.46385 2.62821 3.28906C2.62973 3.11426 2.69984 2.94705 2.82344 2.82344C2.94705 2.69984 3.11426 2.62973 3.28906 2.62821C3.46385 2.62669 3.63225 2.69388 3.75799 2.81532L5.64466 4.70199C5.76609 4.82772 5.83329 4.99613 5.83177 5.17092C5.83025 5.34572 5.76014 5.51293 5.63654 5.63654C5.51293 5.76014 5.34572 5.83025 5.17092 5.83177C4.99613 5.83329 4.82772 5.76609 4.70199 5.64466L2.81532 3.75799ZM10.3553 11.298C10.2339 11.1723 10.1667 11.0039 10.1682 10.8291C10.1697 10.6543 10.2398 10.487 10.3634 10.3634C10.487 10.2398 10.6543 10.1697 10.8291 10.1682C11.0039 10.1667 11.1723 10.2339 11.298 10.3553L13.1847 12.242C13.3061 12.3677 13.3733 12.5361 13.3718 12.7109C13.3703 12.8857 13.3001 13.0529 13.1765 13.1765C13.0529 13.3001 12.8857 13.3703 12.7109 13.3718C12.5361 13.3733 12.3677 13.3061 12.242 13.1847L10.3553 11.298ZM1.33332 8.66666C1.15651 8.66666 0.986943 8.59642 0.861919 8.47139C0.736894 8.34637 0.666656 8.1768 0.666656 7.99999C0.666656 7.82318 0.736894 7.65361 0.861919 7.52858C0.986943 7.40356 1.15651 7.33332 1.33332 7.33332H3.99999C4.1768 7.33332 4.34637 7.40356 4.47139 7.52858C4.59642 7.65361 4.66666 7.82318 4.66666 7.99999C4.66666 8.1768 4.59642 8.34637 4.47139 8.47139C4.34637 8.59642 4.1768 8.66666 3.99999 8.66666H1.33332ZM12 8.66666C11.8232 8.66666 11.6536 8.59642 11.5286 8.47139C11.4036 8.34637 11.3333 8.1768 11.3333 7.99999C11.3333 7.82318 11.4036 7.65361 11.5286 7.52858C11.6536 7.40356 11.8232 7.33332 12 7.33332H14.6667C14.8435 7.33332 15.013 7.40356 15.1381 7.52858C15.2631 7.65361 15.3333 7.82318 15.3333 7.99999C15.3333 8.1768 15.2631 8.34637 15.1381 8.47139C15.013 8.59642 14.8435 8.66666 14.6667 8.66666H12ZM3.75799 13.1847C3.69649 13.2483 3.62293 13.2991 3.54159 13.3341C3.46026 13.369 3.37278 13.3874 3.28426 13.3882C3.19574 13.3889 3.10795 13.3721 3.02602 13.3385C2.94409 13.305 2.86965 13.2555 2.80706 13.1929C2.74446 13.1303 2.69496 13.0559 2.66144 12.974C2.62792 12.892 2.61105 12.8042 2.61182 12.7157C2.61259 12.6272 2.63098 12.5397 2.66592 12.4584C2.70086 12.3771 2.75165 12.3035 2.81532 12.242L4.70199 10.3553C4.76349 10.2916 4.83705 10.2409 4.91839 10.2059C4.99972 10.171 5.0872 10.1526 5.17572 10.1518C5.26424 10.1511 5.35203 10.1679 5.43396 10.2014C5.51589 10.235 5.59032 10.2845 5.65292 10.3471C5.71551 10.4097 5.76502 10.4841 5.79854 10.566C5.83206 10.648 5.84893 10.7357 5.84816 10.8243C5.84739 10.9128 5.829 11.0003 5.79406 11.0816C5.75912 11.1629 5.70833 11.2365 5.64466 11.298L3.75799 13.1847Z" fill="#EEAF41"/>
		<path d="M10.8291 5.83176C11.0039 5.83328 11.1723 5.76609 11.298 5.64465L13.1847 3.75798C13.3061 3.63225 13.3733 3.46385 13.3718 3.28905C13.3703 3.11425 13.3001 2.94704 13.1765 2.82344C13.0529 2.69983 12.8857 2.62972 12.7109 2.6282C12.5361 2.62668 12.3677 2.69388 12.242 2.81532L10.3553 4.70198C10.2339 4.82772 10.1667 4.99612 10.1682 5.17092C10.1697 5.34571 10.2398 5.51292 10.3634 5.63653C10.4871 5.76013 10.6543 5.83025 10.8291 5.83176Z" fill="#254E5F"/>
	</symbol>

	<symbol id="reload" viewBox="0 0 17 16">
		<g clip-path="url(#clip0)">
		<path fill-rule="evenodd" clip-rule="evenodd" d="M0.544668 9.75868C0.51481 9.83608 0.499661 9.91838 0.500002 10.0013V14C0.500002 14.1768 0.570239 14.3464 0.695264 14.4714C0.820288 14.5964 0.989858 14.6667 1.16667 14.6667C1.34348 14.6667 1.51305 14.5964 1.63807 14.4714C1.7631 14.3464 1.83334 14.1768 1.83334 14V11.5413L3.788 13.378C4.5841 14.1745 5.56899 14.7564 6.65078 15.0693C7.73257 15.3822 8.87601 15.416 9.97439 15.1675C11.0728 14.919 12.0903 14.3963 12.932 13.6482C13.7738 12.9001 14.4123 11.951 14.788 10.8893C14.8184 10.8066 14.8321 10.7185 14.8283 10.6304C14.8245 10.5423 14.8032 10.4558 14.7657 10.376C14.7283 10.2961 14.6753 10.2245 14.6099 10.1653C14.5446 10.1061 14.4681 10.0604 14.385 10.0309C14.3018 10.0015 14.2137 9.98879 14.1256 9.99365C14.0375 9.9985 13.9513 10.0208 13.8719 10.0592C13.7925 10.0976 13.7215 10.1514 13.663 10.2175C13.6046 10.2835 13.5598 10.3605 13.5313 10.444C13.2308 11.2933 12.72 12.0526 12.0467 12.6511C11.3733 13.2496 10.5593 13.6678 9.68067 13.8667C8.79849 14.0654 7.88032 14.037 7.01213 13.7841C6.14394 13.5312 5.35413 13.0621 4.71667 12.4207L2.85 10.6667H5.16667C5.34348 10.6667 5.51305 10.5964 5.63807 10.4714C5.7631 10.3464 5.83333 10.1768 5.83333 10C5.83333 9.8232 5.7631 9.65363 5.63807 9.52861C5.51305 9.40358 5.34348 9.33334 5.16667 9.33334H1.16667C1.03376 9.33321 0.903848 9.37281 0.793611 9.44706C0.683372 9.5213 0.597843 9.6268 0.548002 9.75001L0.544668 9.75868Z" fill="white"/>
		<path fill-rule="evenodd" clip-rule="evenodd" d="M15.4487 6.24C15.4785 6.1626 15.4937 6.0803 15.4933 5.99734V1.99867C15.4933 1.82186 15.4231 1.65229 15.2981 1.52727C15.173 1.40224 15.0035 1.332 14.8267 1.332C14.6499 1.332 14.4803 1.40224 14.3553 1.52727C14.2302 1.65229 14.16 1.82186 14.16 1.99867V4.45734L12.2053 2.62067C11.4092 1.82416 10.4243 1.24229 9.34255 0.929363C8.26076 0.616435 7.11733 0.582645 6.01895 0.831146C4.92056 1.07965 3.90303 1.60234 3.06129 2.35045C2.21955 3.09856 1.58104 4.04771 1.20533 5.10934C1.17391 5.19236 1.15939 5.28081 1.16261 5.36952C1.16583 5.45823 1.18674 5.5454 1.2241 5.62592C1.26146 5.70644 1.31453 5.77869 1.38019 5.83843C1.44584 5.89816 1.52277 5.94419 1.60645 5.9738C1.69013 6.00341 1.77889 6.01601 1.8675 6.01086C1.95612 6.00571 2.04282 5.98292 2.12251 5.94382C2.2022 5.90472 2.27327 5.85009 2.33157 5.78315C2.38987 5.71622 2.43421 5.63831 2.462 5.554C2.76253 4.70471 3.2733 3.94539 3.94665 3.34688C4.62 2.74837 5.43399 2.33018 6.31267 2.13134C7.1949 1.93271 8.1131 1.96125 8.9813 2.21427C9.84949 2.46729 10.6393 2.93651 11.2767 3.578L13.1433 5.33134H10.8267C10.6499 5.33134 10.4803 5.40157 10.3553 5.5266C10.2302 5.65162 10.16 5.82119 10.16 5.998C10.16 6.17481 10.2302 6.34438 10.3553 6.46941C10.4803 6.59443 10.6499 6.66467 10.8267 6.66467H14.8267C14.9596 6.6648 15.0895 6.6252 15.1997 6.55096C15.31 6.47671 15.3955 6.37121 15.4453 6.248L15.4487 6.24Z" fill="white"/>
		</g>
		<defs>
		<clipPath id="clip0">
		<rect width="16" height="16" fill="white" transform="translate(0.5)"/>
		</clipPath>
		</defs>
	</symbol>

	<symbol id="" viewBox="">
	</symbol>

	<symbol id="" viewBox="">
	</symbol>

	<symbol id="" viewBox="">
	</symbol>

</svg>
