<svg width="14" height="10" viewBox="0 0 14 10" fill="none" xmlns="http://www.w3.org/2000/svg">
<path d="M2.13801 5.19533C2.07652 5.13166 2.00295 5.08087 1.92162 5.04593C1.84028 5.01099 1.7528 4.9926 1.66428 4.99183C1.57576 4.99106 1.48797 5.00793 1.40604 5.04145C1.32411 5.07497 1.24968 5.12447 1.18708 5.18707C1.12449 5.24966 1.07499 5.3241 1.04147 5.40603C1.00795 5.48796 0.991077 5.57575 0.991846 5.66427C0.992616 5.75278 1.01101 5.84026 1.04595 5.9216C1.08089 6.00294 1.13167 6.0765 1.19535 6.138L4.52868 9.47133C4.6537 9.59631 4.82324 9.66652 5.00001 9.66652C5.17679 9.66652 5.34633 9.59631 5.47135 9.47133L12.8047 2.138C12.8684 2.0765 12.9191 2.00294 12.9541 1.9216C12.989 1.84027 13.0074 1.75279 13.0082 1.66427C13.009 1.57575 12.9921 1.48796 12.9586 1.40603C12.925 1.3241 12.8755 1.24966 12.8129 1.18707C12.7503 1.12447 12.6759 1.07497 12.594 1.04145C12.5121 1.00793 12.4243 0.991062 12.3357 0.991831C12.2472 0.9926 12.1597 1.01099 12.0784 1.04593C11.9971 1.08087 11.9235 1.13166 11.862 1.19533L5.00001 8.05733L2.13801 5.19533Z" fill="#254E5F"/>
</svg>
