<svg width="10" height="10" viewBox="0 0 10 10" fill="none" xmlns="http://www.w3.org/2000/svg">
<path d="M5.94266 5L9.47133 8.52867C9.59277 8.6544 9.65996 8.8228 9.65844 8.9976C9.65693 9.1724 9.58681 9.33961 9.46321 9.46321C9.3396 9.58682 9.17239 9.65693 8.99759 9.65845C8.8228 9.65997 8.6544 9.59277 8.52866 9.47134L4.99999 5.94267L1.47133 9.47134C1.40983 9.53501 1.33627 9.5858 1.25493 9.62074C1.17359 9.65567 1.08611 9.67407 0.997594 9.67484C0.909074 9.6756 0.821288 9.65874 0.739357 9.62522C0.657426 9.5917 0.582991 9.54219 0.520396 9.4796C0.457801 9.417 0.408299 9.34257 0.374778 9.26064C0.341258 9.17871 0.32439 9.09092 0.325159 9.0024C0.325929 8.91388 0.34432 8.8264 0.379259 8.74507C0.414198 8.66373 0.464986 8.59017 0.52866 8.52867L4.05733 5L0.52866 1.47133C0.407221 1.3456 0.340025 1.1772 0.341544 1.0024C0.343063 0.827602 0.413175 0.660394 0.536781 0.536788C0.660386 0.413183 0.827594 0.34307 1.00239 0.341551C1.17719 0.340032 1.34559 0.407229 1.47133 0.528668L4.99999 4.05733L8.52866 0.528668C8.6544 0.407229 8.8228 0.340032 8.99759 0.341551C9.17239 0.34307 9.3396 0.413183 9.46321 0.536788C9.58681 0.660394 9.65693 0.827602 9.65844 1.0024C9.65996 1.1772 9.59277 1.3456 9.47133 1.47133L5.94266 5Z" fill="#D12E34"/>
</svg>
